<svg width="40" height="40" viewBox="0 0 40 40" fill="none" xmlns="http://www.w3.org/2000/svg">
<path d="M34.4563 16.6133H21.8147L30.7526 7.6754L29.9825 6.90525L21.0445 15.8432V3.20264H19.9552V15.8432L11.0162 6.90525L10.2461 7.6754L19.1851 16.6133H6.54346V17.7026H19.1851L10.2461 26.6416L11.0162 27.4118L19.9552 18.4728V31.1144H21.0445V18.4739L29.9825 27.4118L30.7526 26.6416L21.8147 17.7026H34.4563V16.6133Z" fill="#CCD6DD"/>
<path d="M20.5004 1.41357C11.8054 1.41357 4.75635 8.46259 4.75635 17.1576C4.75635 25.8526 11.8054 32.9016 20.5004 32.9016C29.1964 32.9016 36.2455 25.8526 36.2455 17.1576C36.2444 8.46259 29.1953 1.41357 20.5004 1.41357ZM20.5004 30.48C13.142 30.48 7.17792 24.516 7.17792 17.1576C7.17792 9.7992 13.142 3.83514 20.5004 3.83514C27.8577 3.83514 33.8228 9.7992 33.8228 17.1576C33.8228 24.516 27.8587 30.48 20.5004 30.48Z" fill="#AAB8C2"/>
<path d="M20.499 25.3576C15.9783 25.3576 12.3008 21.6789 12.3008 17.1582C12.3008 12.6375 15.9783 8.95996 20.499 8.95996C25.0208 8.95996 28.6995 12.6375 28.6995 17.1582C28.6995 21.6789 25.0219 25.3576 20.499 25.3576ZM20.499 10.5939C16.8792 10.5939 13.9348 13.5395 13.9348 17.1582C13.9348 20.777 16.8803 23.7236 20.499 23.7236C24.12 23.7236 27.0655 20.778 27.0655 17.1582C27.0655 13.5384 24.12 10.5939 20.499 10.5939Z" fill="#AAB8C2"/>
<path d="M30.6143 37.3999L21.4902 17.4173C21.4673 17.3672 21.427 17.3346 21.3976 17.2899C21.3562 17.2256 21.3191 17.1613 21.2636 17.1058C21.208 17.0502 21.1438 17.0132 21.0784 16.9718C21.0337 16.9424 21.0011 16.9021 20.951 16.8792C20.9379 16.8738 20.9248 16.8759 20.9128 16.8705C20.8431 16.8411 20.769 16.8335 20.6939 16.8193C20.6274 16.8073 20.5621 16.7866 20.4956 16.7866C20.4368 16.7866 20.3801 16.8062 20.3202 16.816C20.2385 16.8302 20.1579 16.84 20.0817 16.8716C20.0697 16.877 20.0566 16.8749 20.0446 16.8803C19.9967 16.9021 19.964 16.9424 19.9205 16.9696C19.854 17.0121 19.7886 17.0502 19.732 17.1058C19.6764 17.1613 19.6383 17.2267 19.5969 17.2921C19.5686 17.3356 19.5283 17.3683 19.5065 17.4173L10.3856 37.3999C10.1361 37.9468 10.3769 38.5938 10.9237 38.8433C11.0708 38.9097 11.2244 38.9413 11.3758 38.9413C11.7886 38.9413 12.1841 38.7049 12.3671 38.304L20.4989 20.4925L28.6307 38.304C28.8137 38.7049 29.2091 38.9413 29.6231 38.9413C29.7745 38.9413 29.927 38.9097 30.074 38.8422C30.6231 38.5927 30.8638 37.9468 30.6143 37.3999Z" fill="#8899A6"/>
<path d="M14.9513 39.1108H8.61032C8.00901 39.1108 7.521 38.6238 7.521 38.0215C7.521 37.4191 8.00901 36.9321 8.61032 36.9321H14.9513C15.5526 36.9321 16.0406 37.4191 16.0406 38.0215C16.0406 38.6238 15.5526 39.1108 14.9513 39.1108ZM32.3794 39.1108H26.0395C25.4371 39.1108 24.9502 38.6238 24.9502 38.0215C24.9502 37.4191 25.4371 36.9321 26.0395 36.9321H32.3794C32.9818 36.9321 33.4687 37.4191 33.4687 38.0215C33.4687 38.6238 32.9818 39.1108 32.3794 39.1108Z" fill="#553788"/>
<path d="M24.0832 32.3778C24.0832 34.0499 22.7281 35.4051 21.0559 35.4051H19.8446C18.1725 35.4051 16.8174 34.0499 16.8174 32.3778C16.8174 30.7057 18.1725 29.3506 19.8446 29.3506H21.0559C22.727 29.3506 24.0832 30.7057 24.0832 32.3778Z" fill="#744EAA"/>
<path d="M24.0218 31.7723C23.7419 30.3899 22.5207 29.3496 21.0556 29.3496H19.8443C18.3791 29.3496 17.158 30.3888 16.877 31.7723H24.0218Z" fill="#CBB7EA"/>
<path d="M12.8996 28.7919C12.8996 30.464 11.5445 31.8191 9.87235 31.8191H8.66102C6.98891 31.8191 5.63379 30.464 5.63379 28.7919C5.63379 27.1198 6.98891 25.7646 8.66102 25.7646H9.87235C11.5445 25.7646 12.8996 27.1198 12.8996 28.7919Z" fill="#5C913B"/>
<path d="M12.8372 28.1863C12.5572 26.804 11.3361 25.7637 9.87092 25.7637H8.66068C7.19554 25.7637 5.97441 26.8029 5.69336 28.1863H12.8372Z" fill="#C6E5B3"/>
<path d="M38.9997 19.1034C38.9997 20.7755 37.6446 22.1306 35.9725 22.1306H34.7611C33.089 22.1306 31.7339 20.7755 31.7339 19.1034C31.7339 17.4313 33.089 16.0762 34.7611 16.0762H35.9725C37.6446 16.0751 38.9997 17.4302 38.9997 19.1034Z" fill="#3B94D9"/>
<path d="M38.9387 18.4979C38.6588 17.1155 37.4376 16.0752 35.9725 16.0752H34.7612C33.2971 16.0752 32.0749 17.1144 31.7949 18.4979H38.9387Z" fill="#BBDDF5"/>
<path d="M35.3693 8.48719C35.3693 10.1593 34.0142 11.5144 32.3421 11.5144H31.1307C29.4586 11.5144 28.1035 10.1593 28.1035 8.48719C28.1035 6.81508 29.4586 5.45996 31.1307 5.45996H32.3421C34.0142 5.45996 35.3693 6.81508 35.3693 8.48719Z" fill="#5C913B"/>
<path d="M35.3079 7.88164C35.0279 6.49929 33.8068 5.45898 32.3416 5.45898H31.1303C29.6662 5.45898 28.444 6.4982 28.1641 7.88164H35.3079Z" fill="#C6E5B3"/>
<path d="M35.3693 28.7919C35.3693 30.464 34.0142 31.8191 32.3421 31.8191H31.1307C29.4586 31.8191 28.1035 30.464 28.1035 28.7919C28.1035 27.1198 29.4586 25.7646 31.1307 25.7646H32.3421C34.0142 25.7646 35.3693 27.1198 35.3693 28.7919Z" fill="#BE1931"/>
<path d="M35.3079 28.1863C35.0279 26.804 33.8068 25.7637 32.3416 25.7637H31.1303C29.6662 25.7637 28.444 26.8029 28.1641 28.1863H35.3079Z" fill="#F4ABBA"/>
<path d="M12.8996 8.48719C12.8996 10.1593 11.5445 11.5144 9.87235 11.5144H8.66102C6.98891 11.5144 5.63379 10.1593 5.63379 8.48719C5.63379 6.81508 6.98891 5.45996 8.66102 5.45996H9.87235C11.5445 5.45996 12.8996 6.81508 12.8996 8.48719Z" fill="#BE1931"/>
<path d="M12.8372 7.88164C12.5572 6.49929 11.3361 5.45898 9.87092 5.45898H8.66068C7.19554 5.45898 5.97441 6.4982 5.69336 7.88164H12.8372Z" fill="#F4ABBA"/>
<path d="M24.0832 3.02821C24.0832 4.70032 22.7281 6.05544 21.0559 6.05544H19.8446C18.1725 6.05544 16.8174 4.70032 16.8174 3.02821C16.8174 1.3561 18.1725 0.000977219 19.8446 0.000977219H21.0559C22.727 -0.000112106 24.0832 1.35501 24.0832 3.02821Z" fill="#744EAA"/>
<path d="M24.0218 2.42266C23.7419 1.0403 22.5207 0 21.0556 0H19.8443C18.3791 0 17.158 1.03922 16.877 2.42266H24.0218Z" fill="#CBB7EA"/>
<path d="M9.26689 19.1034C9.26689 20.7755 7.91177 22.1306 6.23965 22.1306H5.02723C3.35512 22.1306 2 20.7755 2 19.1034C2 17.4313 3.35512 16.0762 5.02723 16.0762H6.23856C7.91068 16.0751 9.26689 17.4302 9.26689 19.1034Z" fill="#3B94D9"/>
<path d="M9.20445 18.4979C8.92449 17.1155 7.70336 16.0752 6.23822 16.0752H5.02689C3.56175 16.0752 2.34062 17.1144 2.05957 18.4979H9.20445Z" fill="#BBDDF5"/>
<path d="M17.1865 17.1579C17.1865 15.3278 18.6702 13.8452 20.4992 13.8452C22.3292 13.8452 23.8129 15.3289 23.8129 17.1579C23.8129 18.9868 22.3292 20.4705 20.4992 20.4705C18.6702 20.4716 17.1865 18.9879 17.1865 17.1579Z" fill="#553788"/>
</svg>
