<svg width="40" height="40" viewBox="0 0 40 40" fill="none" xmlns="http://www.w3.org/2000/svg">
<path d="M12.9148 7.67431C12.7904 7.79875 12.6959 7.94875 12.617 8.11319L12.6081 8.1043L0.146366 36.1766L0.158587 36.1889C-0.0725155 36.6366 0.314137 37.5477 1.10633 38.341C1.89853 39.1332 2.8096 39.5198 3.25737 39.2887L3.26848 39.2998L31.3408 26.837L31.3319 26.827C31.4952 26.7492 31.6452 26.6547 31.7708 26.5281C33.5063 24.7926 30.6919 19.165 25.4866 13.9585C20.279 8.75205 14.6514 5.93882 12.9148 7.67431Z" fill="#DD2E44"/>
<path d="M14.4414 12.6875L0.459688 35.4711L0.146366 36.1767L0.158587 36.1889C-0.0725154 36.6366 0.314137 37.5477 1.10633 38.341C1.3641 38.5988 1.63187 38.7943 1.89408 38.9599L18.8857 18.2429L14.4414 12.6875Z" fill="#EA596E"/>
<path d="M25.5664 13.8716C30.7551 19.0625 33.6361 24.5956 31.9984 26.2311C30.3618 27.8689 24.8286 24.989 19.6366 19.8003C14.4468 14.6093 11.5669 9.07398 13.2035 7.43737C14.8412 5.80076 20.3743 8.68066 25.5664 13.8716Z" fill="#A0041E"/>
<path d="M20.656 14.475C20.4349 14.6539 20.1461 14.7472 19.8405 14.7139C18.8761 14.6095 18.065 14.2739 17.4973 13.7439C16.8962 13.1829 16.5995 12.4296 16.6806 11.6751C16.8229 10.3507 18.1517 9.13523 20.4172 9.37966C21.2982 9.4741 21.6916 9.19078 21.7049 9.05523C21.7205 8.92079 21.3971 8.55969 20.5161 8.46414C19.5516 8.3597 18.7406 8.02415 18.1717 7.49417C17.5706 6.93308 17.2728 6.17978 17.3551 5.42536C17.4995 4.10096 18.8272 2.88545 21.0905 3.131C21.7327 3.19988 22.0716 3.06767 22.2149 2.98211C22.3293 2.91212 22.3749 2.84545 22.3793 2.80656C22.3927 2.67212 22.0738 2.31103 21.1905 2.21547C20.5805 2.14881 20.1383 1.60216 20.2061 0.991073C20.2716 0.381095 20.8172 -0.0600008 21.4294 0.00666348C23.6926 0.249988 24.7326 1.71994 24.5892 3.04544C24.4448 4.37206 23.1171 5.58535 20.8516 5.34203C20.2094 5.27203 19.8739 5.40536 19.7294 5.49091C19.615 5.5598 19.5683 5.62757 19.5639 5.66535C19.5494 5.8009 19.8705 6.16089 20.7538 6.25644C23.0171 6.50088 24.057 7.96971 23.9137 9.29522C23.7704 10.6196 22.4426 11.8351 20.1783 11.5896C19.5361 11.5207 19.1983 11.654 19.0539 11.7385C18.9383 11.8096 18.8939 11.8762 18.8894 11.914C18.875 12.0485 19.1961 12.4096 20.0783 12.5051C20.6872 12.5718 21.1305 13.1195 21.0627 13.7295C21.0316 14.0339 20.8772 14.2973 20.656 14.475Z" fill="#AA8DD8"/>
<path d="M34.0674 24.7502C36.2596 24.1313 37.7718 25.1091 38.1317 26.3924C38.4917 27.6745 37.7118 29.2978 35.5207 29.9145C34.6652 30.1544 34.4085 30.5633 34.443 30.6933C34.4808 30.8244 34.9152 31.04 35.7685 30.7989C37.9595 30.1822 39.4717 31.16 39.8317 32.4421C40.1939 33.7254 39.4117 35.3465 37.2196 35.9642C36.3651 36.2042 36.1074 36.6142 36.1451 36.7442C36.1818 36.8742 36.6151 37.0898 37.4695 36.8498C38.0584 36.6842 38.674 37.0275 38.8395 37.6175C39.0039 38.2086 38.6606 38.8219 38.0695 38.9886C35.8796 39.6052 34.3663 38.6297 34.0041 37.3453C33.6441 36.0631 34.4252 34.4421 36.6185 33.8243C37.474 33.5832 37.7306 33.1755 37.6929 33.0443C37.6573 32.9143 37.224 32.6977 36.3707 32.9377C34.1774 33.5554 32.6664 32.5799 32.3053 31.2944C31.9442 30.0122 32.7253 28.3912 34.9174 27.7723C35.7707 27.5334 36.0274 27.1223 35.9918 26.9934C35.954 26.8623 35.5218 26.6468 34.6674 26.8868C34.0763 27.0534 33.4641 26.709 33.2975 26.119C33.1319 25.5302 33.4764 24.9169 34.0674 24.7502Z" fill="#77B255"/>
<path d="M25.5563 21.7535C25.2297 21.7535 24.9075 21.6102 24.6875 21.3369C24.3042 20.8569 24.383 20.158 24.8608 19.7747C25.103 19.5802 30.8806 15.0426 39.0458 16.2104C39.6536 16.297 40.0758 16.8592 39.9892 17.467C39.9025 18.0736 39.3447 18.5003 38.7314 18.4092C31.5172 17.3848 26.3019 21.4691 26.2508 21.5102C26.0441 21.6746 25.7997 21.7535 25.5563 21.7535Z" fill="#AA8DD8"/>
<path d="M6.39402 17.1308C6.28847 17.1308 6.18069 17.1152 6.07403 17.0841C5.48627 16.9075 5.15295 16.2886 5.32961 15.7009C6.58846 11.5088 7.72953 4.81902 6.32736 3.07463C6.17069 2.87686 5.93404 2.68243 5.39183 2.72354C4.34965 2.80353 4.44853 5.00234 4.44965 5.02456C4.49631 5.63677 4.03633 6.17008 3.42524 6.21563C2.80415 6.25341 2.27972 5.80231 2.23417 5.19011C2.11973 3.65795 2.59638 0.706942 5.22517 0.50806C6.39846 0.419174 7.37287 0.826937 8.06063 1.68246C10.695 4.96123 8.02063 14.4664 7.45843 16.3397C7.31399 16.8208 6.87178 17.1308 6.39402 17.1308Z" fill="#77B255"/>
<path d="M28.3331 11.5764C29.2536 11.5764 29.9997 10.8302 29.9997 9.90977C29.9997 8.98933 29.2536 8.24316 28.3331 8.24316C27.4127 8.24316 26.6665 8.98933 26.6665 9.90977C26.6665 10.8302 27.4127 11.5764 28.3331 11.5764Z" fill="#5C913B"/>
<path d="M2.22214 21.5756C3.4494 21.5756 4.44428 20.5807 4.44428 19.3535C4.44428 18.1262 3.4494 17.1313 2.22214 17.1313C0.994887 17.1313 0 18.1262 0 19.3535C0 20.5807 0.994887 21.5756 2.22214 21.5756Z" fill="#9266CC"/>
<path d="M36.11 22.6872C37.0304 22.6872 37.7766 21.9411 37.7766 21.0206C37.7766 20.1002 37.0304 19.354 36.11 19.354C35.1895 19.354 34.4434 20.1002 34.4434 21.0206C34.4434 21.9411 35.1895 22.6872 36.11 22.6872Z" fill="#5C913B"/>
<path d="M26.1109 36.0202C27.0314 36.0202 27.7775 35.2741 27.7775 34.3536C27.7775 33.4332 27.0314 32.687 26.1109 32.687C25.1905 32.687 24.4443 33.4332 24.4443 34.3536C24.4443 35.2741 25.1905 36.0202 26.1109 36.0202Z" fill="#5C913B"/>
<path d="M31.1113 6.02143C32.3386 6.02143 33.3334 5.02655 33.3334 3.79929C33.3334 2.57204 32.3386 1.57715 31.1113 1.57715C29.884 1.57715 28.8892 2.57204 28.8892 3.79929C28.8892 5.02655 29.884 6.02143 31.1113 6.02143Z" fill="#FFCC4D"/>
<path d="M36.11 10.465C37.0304 10.465 37.7766 9.71888 37.7766 8.79844C37.7766 7.878 37.0304 7.13184 36.11 7.13184C35.1895 7.13184 34.4434 7.878 34.4434 8.79844C34.4434 9.71888 35.1895 10.465 36.11 10.465Z" fill="#FFCC4D"/>
<path d="M32.7765 14.9099C33.6969 14.9099 34.4431 14.1637 34.4431 13.2433C34.4431 12.3228 33.6969 11.5767 32.7765 11.5767C31.856 11.5767 31.1099 12.3228 31.1099 13.2433C31.1099 14.1637 31.856 14.9099 32.7765 14.9099Z" fill="#FFCC4D"/>
<path d="M8.33409 27.1311C9.25453 27.1311 10.0007 26.3849 10.0007 25.4645C10.0007 24.544 9.25453 23.7979 8.33409 23.7979C7.41365 23.7979 6.66748 24.544 6.66748 25.4645C6.66748 26.3849 7.41365 27.1311 8.33409 27.1311Z" fill="#FFCC4D"/>
</svg>
