<svg width="40" height="40" viewBox="0 0 40 40" fill="none" xmlns="http://www.w3.org/2000/svg">
<path d="M36.2357 16.1638V15.0527H31.6991V6.92822H30.588V15.0527H27.1324V16.1638H30.588V20.6082H20.6113V15.4927H19.5002V20.6082H14.2224V21.7193H19.5002V26.1638H9.56908V22.5993H8.45797V26.1638H2.4502V27.2749H8.45797V31.7193H2.4502V32.8304H8.45797V37.6693H9.56908V32.8304H19.5002V37.6693H20.6113V32.8304H30.588V37.6693H31.6991V32.8304H36.2357V31.7193H31.6991V27.2749H36.2357V26.1638H31.6991V21.7193H36.2357V20.6082H31.6991V16.1638H36.2357ZM9.56908 31.7193V27.2749H19.5002V31.7193H9.56908ZM30.588 31.7193H20.6113V27.2749H30.588V31.7193ZM30.588 26.1638H20.6113V21.7193H30.588V26.1638Z" fill="#E1E8ED"/>
<path d="M34.4995 4.99707H38.944V37.6693H34.4995V4.99707Z" fill="#CCD6DD"/>
<path d="M37.8335 4.99707H38.9446V37.6693H37.8335V4.99707Z" fill="#8899A6"/>
<path d="M27.8327 9.01123L23.3882 11.6968V37.669H27.8327V9.01123ZM12.2771 20.9101H16.7216V37.669H12.2771V20.9101ZM1.16602 26.2335H5.61046V37.669H1.16602V26.2335Z" fill="#CCD6DD"/>
<path d="M4.5 26.2335H5.61111V37.669H4.5V26.2335ZM15.6111 20.9101H16.7222V37.669H15.6111V20.9101ZM26.7222 9.01123H27.8333V37.669H26.7222V9.01123Z" fill="#8899A6"/>
<path d="M20.8933 15.8665C14.3867 21.3654 7.21222 27.4143 0 29.9298V31.9476C8.20778 28.9865 16.0244 22.3254 22.6256 16.6976C27.9467 12.1609 32.9733 7.87649 35.6967 7.87649C37.3189 7.87649 38.7478 8.44649 40 9.36205V7.3776C38.7667 6.65427 37.3444 6.21094 35.6967 6.21094C32.3178 6.21094 26.7689 10.9009 20.8933 15.8665Z" fill="#CCD6DD"/>
<path d="M35.6967 2.87744C31.0978 2.87744 25.3722 7.71633 18.7411 13.3208C12.8033 18.3385 6.28111 23.8441 0 26.3797V29.9308C7.21222 27.4141 14.3867 21.3663 20.8933 15.8674C26.7689 10.9019 32.3178 6.21189 35.6967 6.21189C37.3444 6.21189 38.7667 6.65522 40 7.37855V3.64522C38.7178 3.15855 37.29 2.87744 35.6967 2.87744Z" fill="#DD2E44"/>
<path d="M12.1243 13.694L11.7154 14.0162C11.5576 14.1406 11.3287 14.1129 11.2054 13.9562L10.1854 12.6629C10.061 12.5051 10.0887 12.2762 10.2454 12.1529L10.6543 11.8306C10.8121 11.7062 11.041 11.734 11.1643 11.8906L12.1843 13.184C12.3087 13.3417 12.2821 13.5695 12.1243 13.694ZM15.9443 10.7695L15.5354 11.0917C15.3776 11.2162 15.1487 11.1884 15.0254 11.0317L14.0054 9.73841C13.881 9.58063 13.9087 9.35174 14.0654 9.22841L14.4743 8.90618C14.6321 8.78174 14.861 8.80952 14.9843 8.96618L16.0043 10.2595C16.1287 10.4173 16.1021 10.6451 15.9443 10.7695ZM23.1887 4.98285L22.7798 5.30507C22.6221 5.42952 22.3932 5.40174 22.2698 5.24507L21.2498 3.95174C21.1254 3.79396 21.1532 3.56507 21.3098 3.44174L21.7187 3.11952C21.8765 2.99507 22.1054 3.02285 22.2287 3.17952L23.2487 4.47285C23.3743 4.62952 23.3465 4.85841 23.1887 4.98285ZM27.0454 2.02285L26.6365 2.34507C26.4787 2.46952 26.2498 2.44174 26.1265 2.28507L25.1065 0.99174C24.9821 0.833963 25.0098 0.605074 25.1665 0.48174L25.5754 0.159518C25.7332 0.0350737 25.9621 0.0628517 26.0854 0.219518L27.1054 1.51285C27.2298 1.66952 27.2032 1.89841 27.0454 2.02285ZM17.5654 12.7762C17.3243 12.7762 17.0843 12.6717 16.9198 12.4706C16.6287 12.1151 16.681 11.5895 17.0376 11.2984L18.6032 10.0184C18.9598 9.7273 19.4854 9.77841 19.7765 10.1362C20.0676 10.4917 20.0154 11.0173 19.6587 11.3084L18.0932 12.5884C17.9376 12.714 17.751 12.7762 17.5654 12.7762Z" fill="#1C6399"/>
<path d="M10.3878 13.301C11.299 14.461 11.139 15.2243 10.559 15.6798C9.97896 16.1354 9.19896 16.1098 8.28785 14.951C7.37674 13.7921 7.10785 12.4821 7.68785 12.0265C8.26896 11.5698 9.47674 12.141 10.3878 13.301Z" fill="#EA596E"/>
<path d="M14.1608 10.3376C15.0719 11.4976 14.9119 12.2609 14.3319 12.7165C13.7519 13.172 12.9719 13.1465 12.0608 11.9876C11.1497 10.8287 10.8808 9.51869 11.4608 9.06313C12.0419 8.60647 13.2497 9.17758 14.1608 10.3376Z" fill="#A6D388"/>
<path d="M15.1098 10.6362L8.56312 15.7795C6.87201 17.1084 7.89201 20.2351 8.19423 20.6195C8.51756 21.0317 9.11534 21.104 9.52756 20.7795L17.8153 14.2684C18.6398 13.6206 18.7831 12.4273 18.1353 11.6028L17.6842 11.0284C17.0365 10.2029 15.8842 10.0273 15.1098 10.6362Z" fill="#3B94D9"/>
<path d="M21.3088 4.45575C22.2199 5.61575 22.0599 6.37909 21.4799 6.83464C20.8999 7.2902 20.1199 7.26464 19.2099 6.10464C18.2988 4.94464 18.0299 3.63575 18.611 3.1802C19.1899 2.72464 20.3977 3.29575 21.3088 4.45575Z" fill="#F4900C"/>
<path d="M25.1423 1.43232C26.0534 2.59232 25.8934 3.35565 25.3134 3.81121C24.7334 4.26676 23.9534 4.24121 23.0434 3.08121C22.1323 1.92121 21.8634 0.612317 22.4445 0.156761C23.0234 -0.298794 24.2323 0.272317 25.1423 1.43232Z" fill="#AA8DD8"/>
<path d="M26.0318 1.78961L19.484 6.93294C17.7929 8.26072 18.8129 11.3885 19.1151 11.7729C19.4385 12.1852 20.0362 12.2574 20.4485 11.9329L28.7374 5.42294C29.5618 4.77516 29.7051 3.58183 29.0574 2.75738L28.6062 2.18294C27.9585 1.35739 26.8051 1.18183 26.0318 1.78961Z" fill="#3B94D9"/>
<path d="M10.1061 20.8224C9.94161 20.8224 9.77828 20.7491 9.66828 20.6091C9.47828 20.368 9.52161 20.018 9.76383 19.8291L17.6072 13.7013C17.8461 13.5146 18.1961 13.5546 18.3861 13.7968C18.5761 14.038 18.5327 14.388 18.2905 14.5768L10.4472 20.7046C10.3472 20.7846 10.2272 20.8224 10.1061 20.8224ZM20.9805 12.038C20.8161 12.038 20.6527 11.9646 20.5427 11.8246C20.3527 11.5835 20.3961 11.2335 20.6383 11.0446L28.4816 4.91685C28.7216 4.72907 29.0705 4.77018 29.2605 5.0124C29.4505 5.25351 29.4072 5.60351 29.1649 5.7924L21.3216 11.9202C21.2205 11.9991 21.1005 12.038 20.9805 12.038Z" fill="#E1E8ED"/>
</svg>
